# Blender 5.1.2
# www.blender.org
o 0
v 0.250000 1.000000 0.937500
v -0.250000 1.000000 0.937500
v -0.250000 1.000000 1.437500
v 0.250000 1.000000 1.437500
v 0.250000 0.500000 1.437500
v -0.250000 0.500000 1.437500
v -0.250000 0.500000 0.937500
v 0.250000 0.500000 0.937500
v -0.250000 1.000000 1.437500
v -0.250000 1.000000 0.937500
v -0.250000 0.500000 0.937500
v -0.250000 0.500000 1.437500
v 0.250000 1.000000 1.437500
v -0.250000 1.000000 1.437500
v -0.250000 0.500000 1.437500
v 0.250000 0.500000 1.437500
v 0.250000 1.000000 0.937500
v 0.250000 1.000000 1.437500
v 0.250000 0.500000 1.437500
v 0.250000 0.500000 0.937500
v -0.250000 1.000000 0.937500
v 0.250000 1.000000 0.937500
v 0.250000 0.500000 0.937500
v -0.250000 0.500000 0.937500
v 0.125000 0.750000 1.437500
v -0.125000 0.750000 1.437500
v -0.125000 0.750000 1.500000
v 0.125000 0.750000 1.500000
v 0.125000 0.562500 1.500000
v -0.125000 0.562500 1.500000
v -0.125000 0.562500 1.437500
v 0.125000 0.562500 1.437500
v -0.125000 0.750000 1.500000
v -0.125000 0.750000 1.437500
v -0.125000 0.562500 1.437500
v -0.125000 0.562500 1.500000
v 0.125000 0.750000 1.500000
v -0.125000 0.750000 1.500000
v -0.125000 0.562500 1.500000
v 0.125000 0.562500 1.500000
v 0.125000 0.750000 1.437500
v 0.125000 0.750000 1.500000
v 0.125000 0.562500 1.500000
v 0.125000 0.562500 1.437500
v -0.125000 0.750000 1.437500
v 0.125000 0.750000 1.437500
v 0.125000 0.562500 1.437500
v -0.125000 0.562500 1.437500
v 0.312500 0.875000 1.062500
v -0.312500 0.875000 1.062500
v -0.312500 0.375000 1.062500
v 0.312500 0.375000 1.062500
v 0.312500 0.375000 -0.937500
v -0.312500 0.375000 -0.937500
v -0.312500 0.875000 -0.937500
v 0.312500 0.875000 -0.937500
v -0.312500 0.375000 1.062500
v -0.312500 0.875000 1.062500
v -0.312500 0.875000 -0.937500
v -0.312500 0.375000 -0.937500
v 0.312500 0.375000 1.062500
v -0.312500 0.375000 1.062500
v -0.312500 0.375000 -0.937500
v 0.312500 0.375000 -0.937500
v 0.312500 0.875000 1.062500
v 0.312500 0.375000 1.062500
v 0.312500 0.375000 -0.937500
v 0.312500 0.875000 -0.937500
v -0.312500 0.875000 1.062500
v 0.312500 0.875000 1.062500
v 0.312500 0.875000 -0.937500
v -0.312500 0.875000 -0.937500
v -0.062500 0.375000 -1.000000
v -0.312500 0.375000 -1.000000
v -0.312500 0.375000 -0.750000
v -0.062500 0.375000 -0.750000
v -0.062500 -0.000000 -0.750000
v -0.312500 -0.000000 -0.750000
v -0.312500 -0.000000 -1.000000
v -0.062500 -0.000000 -1.000000
v -0.312500 0.375000 -0.750000
v -0.312500 0.375000 -1.000000
v -0.312500 -0.000000 -1.000000
v -0.312500 -0.000000 -0.750000
v -0.062500 0.375000 -0.750000
v -0.312500 0.375000 -0.750000
v -0.312500 -0.000000 -0.750000
v -0.062500 -0.000000 -0.750000
v -0.062500 0.375000 -1.000000
v -0.062500 0.375000 -0.750000
v -0.062500 -0.000000 -0.750000
v -0.062500 -0.000000 -1.000000
v -0.312500 0.375000 -1.000000
v -0.062500 0.375000 -1.000000
v -0.062500 -0.000000 -1.000000
v -0.312500 -0.000000 -1.000000
v 0.312500 0.375000 -1.000000
v 0.062500 0.375000 -1.000000
v 0.062500 0.375000 -0.750000
v 0.312500 0.375000 -0.750000
v 0.312500 -0.000000 -0.750000
v 0.062500 -0.000000 -0.750000
v 0.062500 -0.000000 -1.000000
v 0.312500 -0.000000 -1.000000
v 0.062500 0.375000 -0.750000
v 0.062500 0.375000 -1.000000
v 0.062500 -0.000000 -1.000000
v 0.062500 -0.000000 -0.750000
v 0.312500 0.375000 -0.750000
v 0.062500 0.375000 -0.750000
v 0.062500 -0.000000 -0.750000
v 0.312500 -0.000000 -0.750000
v 0.312500 0.375000 -1.000000
v 0.312500 0.375000 -0.750000
v 0.312500 -0.000000 -0.750000
v 0.312500 -0.000000 -1.000000
v 0.062500 0.375000 -1.000000
v 0.312500 0.375000 -1.000000
v 0.312500 -0.000000 -1.000000
v 0.062500 -0.000000 -1.000000
v -0.062500 0.375001 0.750000
v -0.312500 0.375001 0.750000
v -0.312500 0.375001 1.000000
v -0.062500 0.375001 1.000000
v -0.062500 0.000000 1.000000
v -0.312500 0.000000 1.000000
v -0.312500 0.000001 0.750000
v -0.062500 0.000001 0.750000
v -0.312500 0.375001 1.000000
v -0.312500 0.375001 0.750000
v -0.312500 0.000001 0.750000
v -0.312500 0.000000 1.000000
v -0.062500 0.375001 1.000000
v -0.312500 0.375001 1.000000
v -0.312500 0.000000 1.000000
v -0.062500 0.000000 1.000000
v -0.062500 0.375001 0.750000
v -0.062500 0.375001 1.000000
v -0.062500 0.000000 1.000000
v -0.062500 0.000001 0.750000
v -0.312500 0.375001 0.750000
v -0.062500 0.375001 0.750000
v -0.062500 0.000001 0.750000
v -0.312500 0.000001 0.750000
v 0.312500 0.375001 0.750000
v 0.062500 0.375001 0.750000
v 0.062500 0.375001 1.000000
v 0.312500 0.375001 1.000000
v 0.312500 0.000000 1.000000
v 0.062500 0.000000 1.000000
v 0.062500 0.000001 0.750000
v 0.312500 0.000001 0.750000
v 0.062500 0.375001 1.000000
v 0.062500 0.375001 0.750000
v 0.062500 0.000001 0.750000
v 0.062500 0.000000 1.000000
v 0.312500 0.375001 1.000000
v 0.062500 0.375001 1.000000
v 0.062500 0.000000 1.000000
v 0.312500 0.000000 1.000000
v 0.312500 0.375001 0.750000
v 0.312500 0.375001 1.000000
v 0.312500 0.000000 1.000000
v 0.312500 0.000001 0.750000
v 0.062500 0.375001 0.750000
v 0.312500 0.375001 0.750000
v 0.312500 0.000001 0.750000
v 0.062500 0.000001 0.750000
vn -0.0000 1.0000 -0.0000
vn -0.0000 -1.0000 -0.0000
vn -1.0000 -0.0000 -0.0000
vn -0.0000 -0.0000 1.0000
vn 1.0000 -0.0000 -0.0000
vn -0.0000 -0.0000 -1.0000
vt 0.250000 1.000000
vt 0.125000 1.000000
vt 0.125000 0.875000
vt 0.250000 0.875000
vt 0.375000 0.875000
vt 0.375000 1.000000
vt 0.000000 0.875000
vt 0.000000 0.750000
vt 0.125000 0.750000
vt 0.250000 0.750000
vt 0.375000 0.750000
vt 0.500000 0.875000
vt 0.500000 0.750000
vt 0.328125 0.750000
vt 0.265625 0.750000
vt 0.265625 0.734375
vt 0.328125 0.734375
vt 0.390625 0.734375
vt 0.390625 0.750000
vt 0.250000 0.734375
vt 0.250000 0.687500
vt 0.265625 0.687500
vt 0.328125 0.687500
vt 0.343750 0.734375
vt 0.343750 0.687500
vt 0.406250 0.734375
vt 0.406250 0.687500
vt 0.718750 0.875000
vt 0.562500 0.875000
vt 0.562500 0.750000
vt 0.718750 0.750000
vt 0.875000 0.750000
vt 0.875000 0.875000
vt 0.437500 0.750000
vt 0.437500 0.250000
vt 0.562500 0.250000
vt 0.718750 0.250000
vt 0.843750 0.750000
vt 0.843750 0.250000
vt 1.000000 0.750000
vt 1.000000 0.250000
vt 0.062500 0.750000
vt 0.062500 0.687500
vt 0.125000 0.687500
vt 0.187500 0.687500
vt 0.187500 0.750000
vt 0.000000 0.687500
vt 0.000000 0.593750
vt 0.062500 0.593750
vt 0.125000 0.593750
vt 0.187500 0.593750
vt 0.250000 0.593750
s 1
f 1/1/1 2/2/1 3/3/1 4/4/1
f 5/5/2 6/4/2 7/1/2 8/6/2
f 9/3/3 10/7/3 11/8/3 12/9/3
f 13/4/4 14/3/4 15/9/4 16/10/4
f 17/5/5 18/4/5 19/10/5 20/11/5
f 21/12/6 22/5/6 23/11/6 24/13/6
f 25/14/1 26/15/1 27/16/1 28/17/1
f 29/18/2 30/17/2 31/14/2 32/19/2
f 33/16/3 34/20/3 35/21/3 36/22/3
f 37/17/4 38/16/4 39/22/4 40/23/4
f 41/24/5 42/17/5 43/23/5 44/25/5
f 45/26/6 46/24/6 47/25/6 48/27/6
f 49/28/4 50/29/4 51/30/4 52/31/4
f 53/32/6 54/31/6 55/28/6 56/33/6
f 57/30/3 58/34/3 59/35/3 60/36/3
f 61/31/2 62/30/2 63/36/2 64/37/2
f 65/38/5 66/31/5 67/37/5 68/39/5
f 69/40/1 70/38/1 71/39/1 72/41/1
f 73/9/1 74/42/1 75/43/1 76/44/1
f 77/45/2 78/44/2 79/9/2 80/46/2
f 81/43/3 82/47/3 83/48/3 84/49/3
f 85/44/4 86/43/4 87/49/4 88/50/4
f 89/45/5 90/44/5 91/50/5 92/51/5
f 93/21/6 94/45/6 95/51/6 96/52/6
f 97/9/1 98/42/1 99/43/1 100/44/1
f 101/45/2 102/44/2 103/9/2 104/46/2
f 105/43/3 106/47/3 107/48/3 108/49/3
f 109/44/4 110/43/4 111/49/4 112/50/4
f 113/45/5 114/44/5 115/50/5 116/51/5
f 117/21/6 118/45/6 119/51/6 120/52/6
f 121/9/1 122/42/1 123/43/1 124/44/1
f 125/45/2 126/44/2 127/9/2 128/46/2
f 129/43/3 130/47/3 131/48/3 132/49/3
f 133/44/4 134/43/4 135/49/4 136/50/4
f 137/45/5 138/44/5 139/50/5 140/51/5
f 141/21/6 142/45/6 143/51/6 144/52/6
f 145/9/1 146/42/1 147/43/1 148/44/1
f 149/45/2 150/44/2 151/9/2 152/46/2
f 153/43/3 154/47/3 155/48/3 156/49/3
f 157/44/4 158/43/4 159/49/4 160/50/4
f 161/45/5 162/44/5 163/50/5 164/51/5
f 165/21/6 166/45/6 167/51/6 168/52/6
